<?xml version="1.0" standalone="no"?>
<!DOCTYPE svg PUBLIC "-//W3C//DTD SVG 20010904//EN"
 "http://www.w3.org/TR/2001/REC-SVG-20010904/DTD/svg10.dtd">
<svg version="1.0" xmlns="http://www.w3.org/2000/svg"
 width="700.000000pt" height="700.000000pt" viewBox="0 0 700.000000 700.000000"
 preserveAspectRatio="xMidYMid meet">
<metadata>
Created by potrace 1.14, written by Peter Selinger 2001-2017
</metadata>
<g transform="translate(0.000000,700.000000) scale(0.100000,-0.100000)"
fill="#000000" stroke="none">
<path d="M3259 6946 c-2 -2 -44 -7 -93 -11 -50 -4 -97 -8 -105 -10 -9 -1 -38
-6 -64 -9 -50 -8 -57 -9 -117 -20 -89 -16 -257 -55 -320 -74 -30 -9 -57 -16
-60 -17 -21 -3 -214 -72 -272 -96 -40 -17 -78 -31 -84 -32 -6 -2 -82 -38 -170
-82 -139 -69 -198 -101 -279 -153 -11 -6 -27 -15 -35 -19 -8 -4 -17 -9 -20
-12 -3 -3 -39 -28 -80 -56 -88 -59 -68 -44 -205 -152 -161 -127 -311 -270
-445 -422 -36 -41 -70 -79 -75 -85 -29 -30 -189 -251 -237 -326 -101 -158
-194 -333 -271 -512 -51 -116 -104 -263 -97 -263 2 0 -3 -11 -10 -25 -8 -14
-15 -29 -16 -35 -1 -5 -11 -41 -22 -80 -22 -74 -58 -225 -67 -278 -3 -18 -8
-39 -10 -47 -5 -21 -15 -87 -20 -135 -2 -22 -7 -51 -10 -65 -14 -67 -20 -198
-20 -430 0 -249 6 -359 29 -495 2 -16 7 -50 11 -75 12 -85 13 -86 48 -52 47
44 175 125 252 158 l67 29 -7 70 c-14 141 -17 203 -17 365 0 156 5 281 16 360
3 19 8 52 11 73 12 85 17 116 36 202 11 50 22 99 24 110 10 46 75 256 103 330
79 210 188 424 317 620 32 50 61 92 64 95 4 3 26 32 50 65 25 33 47 62 50 65
4 3 35 39 70 81 58 70 243 256 318 321 68 58 212 167 278 211 39 26 75 51 80
55 50 40 419 232 447 232 7 0 18 4 23 8 16 14 161 68 275 101 58 18 119 36
135 41 27 9 95 23 165 36 14 2 45 9 70 14 25 5 65 12 90 15 25 3 65 8 90 11
25 3 61 6 80 7 19 2 40 6 47 10 6 4 14 3 17 -1 3 -5 25 -6 48 -3 35 6 343 6
343 1 0 0 25 -3 55 -4 64 -4 217 -21 230 -26 3 -1 8 -2 11 -2 22 3 378 -81
434 -102 6 -2 25 -7 43 -11 18 -4 34 -11 37 -15 2 -4 -28 -38 -68 -77 -99 -96
-205 -214 -315 -348 -31 -38 -62 -74 -68 -80 -8 -8 -180 -222 -301 -375 -6 -8
-27 -33 -45 -56 -18 -23 -46 -58 -63 -79 -16 -21 -76 -97 -133 -169 -56 -72
-108 -138 -115 -146 -7 -8 -34 -44 -61 -80 -28 -36 -63 -81 -78 -100 -34 -42
-22 -25 -139 -180 -51 -69 -100 -132 -106 -140 -38 -47 -254 -340 -357 -485
-47 -66 -91 -126 -97 -133 -6 -7 -53 -75 -104 -150 -52 -75 -98 -141 -102
-147 -5 -5 -26 -37 -48 -70 -21 -33 -41 -62 -44 -65 -8 -6 -28 -39 -43 -67
l-11 -23 -291 2 c-289 2 -382 0 -401 -11 -5 -3 -16 -6 -25 -7 -37 -4 -89 -16
-135 -31 -47 -14 -174 -72 -185 -83 -3 -3 -24 -18 -48 -34 -72 -49 -166 -160
-211 -249 -43 -86 -74 -167 -67 -174 2 -3 22 5 44 16 54 27 172 72 172 64 0
-3 6 -1 13 5 16 14 197 51 322 67 128 15 501 27 533 17 10 -4 10 -8 -1 -21 -7
-9 -33 -50 -58 -91 -24 -41 -47 -76 -51 -78 -5 -2 -8 -7 -8 -12 0 -7 -92 -170
-130 -230 -5 -8 -23 -42 -41 -75 -17 -33 -37 -63 -43 -67 -6 -4 -7 -8 -3 -8 5
0 -1 -15 -12 -34 -29 -47 -142 -276 -180 -366 -18 -41 -36 -84 -41 -95 -42
-90 -103 -278 -133 -409 l-13 -58 -66 78 c-77 93 -198 259 -198 273 0 5 -4 11
-8 13 -18 7 -224 376 -232 416 -1 4 -10 25 -20 47 -28 64 -80 204 -102 275
-25 82 -25 81 -51 70 -21 -8 -56 -21 -67 -25 -28 -10 -246 -112 -259 -122 -13
-9 102 -309 186 -483 84 -177 249 -459 274 -468 5 -2 9 -8 9 -14 0 -9 137
-193 170 -228 8 -9 40 -45 70 -80 74 -87 230 -242 315 -315 39 -33 72 -62 75
-65 13 -14 183 -143 255 -192 225 -155 525 -309 780 -398 139 -49 273 -88 279
-82 4 3 6 1 6 -4 0 -5 8 -10 18 -11 9 0 80 -14 157 -31 77 -16 163 -32 190
-36 28 -3 59 -8 70 -10 100 -19 646 -29 775 -13 25 3 72 8 105 12 33 4 69 9
80 11 10 2 37 6 60 9 22 3 47 8 55 10 8 2 29 7 47 10 42 7 201 44 238 56 17 5
73 22 125 38 89 28 209 70 255 90 11 5 49 21 85 36 60 25 276 135 363 184 124
70 323 210 462 325 238 196 517 506 671 746 16 25 32 46 37 48 4 2 7 7 7 12 0
5 22 44 48 87 79 128 218 412 213 436 0 4 4 7 9 7 6 0 10 5 10 11 0 6 16 55
36 108 34 90 88 258 99 305 2 12 14 58 25 104 34 142 61 303 77 462 11 112 10
565 -1 660 -4 41 -10 91 -11 110 -3 33 -29 186 -40 240 -3 14 -10 45 -15 70
-6 25 -13 56 -16 70 -9 43 -64 231 -91 310 -53 159 -231 549 -254 558 -5 2 -9
9 -9 15 0 13 -135 230 -156 251 -8 8 -14 19 -14 24 0 6 -3 12 -7 14 -5 2 -21
23 -38 48 -16 25 -36 51 -43 58 -7 8 -25 30 -40 50 -15 20 -36 46 -47 58 -11
11 -38 43 -60 69 -76 92 -266 277 -389 380 -27 22 -54 46 -62 53 -7 6 -17 12
-23 12 -6 0 -11 4 -11 8 0 4 -42 38 -93 74 -276 197 -606 367 -918 471 -79 27
-236 72 -279 81 -14 3 -34 7 -45 10 -72 18 -255 51 -345 61 -25 3 -61 8 -80
11 -40 7 -585 15 -591 10z m2104 -1011 c119 -92 165 -134 306 -275 201 -203
252 -265 399 -486 82 -125 252 -440 252 -468 0 -4 8 -26 19 -49 22 -49 61
-155 66 -177 2 -8 8 -28 15 -45 34 -87 102 -384 114 -495 3 -25 8 -61 11 -80
27 -174 22 -620 -10 -789 -1 -9 -6 -41 -10 -71 -4 -30 -9 -62 -11 -70 -2 -8
-8 -37 -14 -65 -22 -100 -41 -180 -47 -195 -4 -8 -7 -17 -8 -20 -4 -19 -47
-158 -52 -170 -4 -8 -7 -17 -8 -20 -4 -11 -20 -50 -63 -155 -49 -119 -153
-326 -183 -364 -11 -13 -19 -27 -19 -32 0 -12 -132 -206 -171 -250 -16 -19
-17 -18 -47 28 -92 144 -215 447 -257 633 -2 8 -8 27 -13 41 -6 15 -8 29 -6
32 3 3 1 14 -4 24 -5 10 -12 34 -15 53 -3 19 -15 78 -27 130 -11 52 -30 140
-41 195 -27 131 -25 125 -33 165 -3 19 -8 46 -11 60 -3 14 -9 50 -15 80 -6 30
-12 64 -14 76 -2 12 -7 45 -11 75 -4 30 -8 56 -10 59 -2 3 -6 26 -9 50 -4 25
-9 56 -11 70 -3 14 -7 45 -10 70 -3 25 -7 56 -10 70 -3 13 -7 42 -10 65 -4 22
-8 51 -10 65 -2 14 -6 48 -10 75 -10 84 -14 119 -19 155 -3 19 -8 62 -11 95
-3 33 -8 80 -11 104 -4 25 -7 63 -9 85 -2 23 -6 73 -9 111 -51 547 -65 1204
-34 1653 1 6 3 12 5 12 2 0 36 -25 76 -55z m-865 -397 c0 -139 3 -327 7 -418
5 -91 8 -202 9 -247 1 -46 4 -83 7 -83 3 0 5 -12 6 -27 0 -26 10 -179 18 -268
15 -168 19 -213 30 -310 2 -22 7 -71 10 -110 3 -38 8 -81 10 -95 2 -14 6 -50
10 -80 3 -30 7 -71 10 -90 7 -51 14 -108 20 -165 3 -27 7 -59 9 -70 2 -11 7
-50 11 -86 5 -52 4 -66 -7 -66 -7 -1 -49 -4 -93 -9 -44 -4 -97 -8 -117 -8 -21
-1 -38 -3 -38 -6 0 -3 -33 -6 -73 -6 -39 -1 -160 -4 -267 -8 -213 -7 -621 -8
-850 -2 -80 2 -207 5 -282 6 l-137 2 10 26 c6 15 14 31 18 37 4 5 33 57 63
115 171 325 387 660 677 1050 107 143 249 328 261 340 3 3 21 25 40 50 53 69
54 70 70 88 9 9 33 40 55 67 22 28 42 52 45 55 3 3 35 41 70 85 35 44 67 82
70 85 3 3 33 40 68 83 35 43 70 86 77 95 8 10 30 37 50 62 20 25 44 54 54 65
9 11 29 37 45 58 16 20 30 37 32 37 1 0 3 -114 2 -252z m223 -2542 c0 -6 2
-20 5 -31 2 -11 6 -40 9 -65 4 -25 8 -52 10 -60 4 -13 19 -95 42 -224 2 -16
18 -90 34 -165 17 -75 32 -145 34 -157 3 -11 16 -65 30 -120 15 -54 28 -106
30 -114 10 -43 87 -284 108 -341 108 -288 251 -517 369 -589 l28 -17 -28 -25
c-16 -14 -73 -56 -128 -94 -83 -59 -134 -91 -274 -174 -29 -18 -278 -140 -285
-140 -3 0 -25 -8 -48 -19 -91 -40 -258 -96 -382 -127 -16 -4 -34 -8 -40 -10
-42 -12 -252 -55 -287 -58 -24 -3 -63 -7 -88 -11 -209 -27 -585 -23 -790 10
-20 3 -52 7 -70 9 -19 2 -42 6 -50 9 -8 3 -42 10 -75 17 -33 6 -67 13 -75 15
-8 2 -28 6 -45 10 -16 4 -75 21 -130 38 -55 17 -104 31 -110 33 -26 5 -212 79
-230 91 -11 7 -27 13 -35 13 -9 0 -31 14 -48 31 -100 98 -177 283 -198 479
-14 119 -6 462 11 490 1 3 6 25 9 50 3 25 17 86 31 135 14 50 28 100 30 113
30 132 327 794 425 949 l15 23 350 -7 c700 -13 1235 -5 1510 22 33 3 92 8 130
10 106 8 168 15 173 20 7 7 32 -7 33 -19z"/>
</g>
</svg>
